<svg xmlns="http://www.w3.org/2000/svg" xmlns:xlink="http://www.w3.org/1999/xlink" style="display:none"><symbol  viewBox='0 0 32 32' id='icon-arrow'>
    <path clip-rule="evenodd" d="M21.698,15.286l-9.002-8.999  c-0.395-0.394-1.035-0.394-1.431,0c-0.395,0.394-0.395,1.034,0,1.428L19.553,16l-8.287,8.285c-0.395,0.394-0.395,1.034,0,1.429  c0.395,0.394,1.036,0.394,1.431,0l9.002-8.999C22.088,16.325,22.088,15.675,21.698,15.286z" fill="#121313" fill-rule="evenodd" id="Chevron_Right"></path><g><g><g><g><g><g></g></g></g></g></g></g>
  </symbol><symbol  viewBox='0 0 24 24' id='icon-check'>
    <path clip-rule="evenodd" d="M21.652,3.211c-0.293-0.295-0.77-0.295-1.061,0L9.41,14.34  c-0.293,0.297-0.771,0.297-1.062,0L3.449,9.351C3.304,9.203,3.114,9.13,2.923,9.129C2.73,9.128,2.534,9.201,2.387,9.351  l-2.165,1.946C0.078,11.445,0,11.63,0,11.823c0,0.194,0.078,0.397,0.223,0.544l4.94,5.184c0.292,0.296,0.771,0.776,1.062,1.07  l2.124,2.141c0.292,0.293,0.769,0.293,1.062,0l14.366-14.34c0.293-0.294,0.293-0.777,0-1.071L21.652,3.211z" fill-rule="evenodd"></path>
  </symbol><symbol  viewBox='0 0 18 15' id='icon-check2'>
    <title><desc><defs><g fill="none" fill-rule="evenodd" id="Page-1" stroke="none" stroke-width="1"><g fill="#000000" id="Core" transform="translate(-423.000000, -47.000000)"><g id="check" transform="translate(423.000000, 47.500000)"><path d="M6,10.2 L1.8,6 L0.4,7.4 L6,13 L18,1 L16.6,-0.4 L6,10.2 Z" id="Shape"></path></g></g></g></defs></desc></title>
  </symbol><symbol  viewBox='0 0 1792 1792' id='icon-check3'>
    <path d="M1412 734q0-28-18-46l-91-90q-19-19-45-19t-45 19l-408 407-226-226q-19-19-45-19t-45 19l-91 90q-18 18-18 46 0 27 18 45l362 362q19 19 45 19 27 0 46-19l543-543q18-18 18-45zm252 162q0 209-103 385.5t-279.5 279.5-385.5 103-385.5-103-279.5-279.5-103-385.5 103-385.5 279.5-279.5 385.5-103 385.5 103 279.5 279.5 103 385.5z"></path>
  </symbol></svg>