<svg xmlns="http://www.w3.org/2000/svg" xmlns:xlink="http://www.w3.org/1999/xlink" style="display:none"><symbol  viewBox='0 0 16 16' id='icon-arrow'>
    
<style type="text/css">
	.st0{fill:#999999;}
</style>
<path class="st0" d="M8,12.4L0.2,4.8c-0.3-0.3-0.3-0.8,0-1.1c0.3-0.3,0.8-0.3,1.1,0L8,10.2l6.6-6.6c0.3-0.3,0.8-0.3,1.1,0
	c0.3,0.3,0.3,0.8,0,1.1L8,12.4z"></path>

  </symbol><symbol  viewBox='0 0 32 32' id='icon-calendar'>
    <g transform="translate(480 96)"><path d="M-474-92v-2c0-1.105,0.896-2,2-2s2,0.895,2,2v2c0,1.104-0.896,2-2,2S-474-90.895-474-92z M-460-90c1.105,0,2-0.896,2-2v-2   c0-1.105-0.895-2-2-2c-1.104,0-2,0.895-2,2v2C-462-90.895-461.105-90-460-90z M-452-68h-28v-24h5c0,1.652,1.346,3,3,3   c1.654,0,3-1.348,3-3h6c0,1.652,1.346,3,3,3s3-1.348,3-3h5V-68L-452-68z M-454-86h-24v16h24V-86L-454-86z M-450-90v24h-28v2h30v-26   H-450z M-470-84h-4v4h4V-84z M-464-84h-4v4h4V-84z M-458-84h-4v4h4V-84z M-470-78h-4v4h4V-78z M-464-78h-4v4h4V-78z M-458-78h-4v4   h4V-78z"></path></g>
  </symbol><symbol  viewBox='0 0 512 512' id='icon-caret'>
    <path d="M98.9,184.7l1.8,2.1l136,156.5c4.6,5.3,11.5,8.6,19.2,8.6c7.7,0,14.6-3.4,19.2-8.6L411,187.1l2.3-2.6  c1.7-2.5,2.7-5.5,2.7-8.7c0-8.7-7.4-15.8-16.6-15.8v0H112.6v0c-9.2,0-16.6,7.1-16.6,15.8C96,179.1,97.1,182.2,98.9,184.7z"></path>
  </symbol><symbol  viewBox='0 0 128 128' id='icon-done'>
    <path d="M116.158,29.336l-4.975-4.975c-3.469-3.469-9.088-3.478-12.549-0.019L48.103,74.875L29.364,56.136  c-3.459-3.46-9.078-3.45-12.549,0.021l-4.974,4.974c-3.47,3.47-3.48,9.089-0.02,12.549L41.8,103.657  c1.741,1.741,4.026,2.602,6.31,2.588c2.279,0.011,4.559-0.852,6.297-2.59l61.771-61.771  C119.637,38.424,119.631,32.807,116.158,29.336z" fill="#232323"></path>
  </symbol><symbol  viewBox='0 0 7 14' id='icon-facebook'>
    
    <!-- Generator: Sketch 3.8.3 (29802) - http://www.bohemiancoding.com/sketch -->
    <title>Shape</title>
    <desc>Created with Sketch.</desc>
    <defs></defs>
    <g id="Page-1" stroke="none" stroke-width="1" fill="none" fill-rule="evenodd">
        <g id="S&#xE9;ance-inviter---desktop" transform="translate(-621.000000, -563.000000)" fill="#AEBCC1">
            <g id="Group-3" transform="translate(413.000000, 562.000000)">
                <path d="M212.289836,5.53326433 L212.289836,4.08023184 C212.289836,3.53454771 212.651501,3.40732768 212.906231,3.40732768 L214.469675,3.40732768 L214.469675,1.00840406 L212.316498,1 C209.926268,1 209.382323,2.78919478 209.382323,3.93417512 L209.382323,5.53326433 L208,5.53326433 L208,8.00521631 L209.382323,8.00521631 L209.382323,15 L212.289836,15 L212.289836,8.00521631 L214.251749,8.00521631 L214.50532,5.53326433 L212.289836,5.53326433 Z" id="Shape"></path>
            </g>
        </g>
    </g>

  </symbol><symbol  viewBox='0 0 128 128' id='icon-like'>
    <path d="M114.097,45.788  c0-13.608-11.032-24.642-24.641-24.642c-9.603,0-19.982,7.071-25.456,13.521c-5.393-6.387-15.855-13.52-25.457-13.52  c-13.609,0-24.642,11.032-24.642,24.64c0,25.742,32.628,46.341,50.099,61.065C81.47,92.129,114.097,71.654,114.097,45.788z"></path>
  </symbol><symbol  viewBox='0 0 14 12' id='icon-twitter'>
    
    <!-- Generator: Sketch 3.8.3 (29802) - http://www.bohemiancoding.com/sketch -->
    <title>Shape</title>
    <desc>Created with Sketch.</desc>
    <defs></defs>
    <g id="Page-1" stroke="none" stroke-width="1" fill="none" fill-rule="evenodd">
        <g id="S&#xE9;ance-inviter---desktop" transform="translate(-718.000000, -564.000000)" fill="#AEBCC1">
            <g id="Group-3" transform="translate(413.000000, 562.000000)">
                <path d="M319,3.34677141 C318.485334,3.57554351 317.93145,3.72985811 317.350283,3.79891602 C317.94367,3.44367984 318.398656,2.88098573 318.613219,2.20973144 C318.058198,2.53910643 317.443781,2.77810933 316.789294,2.90713111 C316.265534,2.34898402 315.51897,2 314.692832,2 C313.106774,2 311.820819,3.28595498 311.820819,4.87229767 C311.820819,5.09709112 311.846112,5.3162008 311.895276,5.52678481 C309.508089,5.40685707 307.39145,4.26356495 305.974768,2.52574955 C305.727524,2.94975945 305.585998,3.44311146 305.585998,3.96999777 C305.585998,4.96636421 306.092991,5.8456448 306.863711,6.36059517 C306.393094,6.34553316 305.950044,6.21622719 305.562694,6.00109616 C305.56241,6.01303209 305.56241,6.02525222 305.56241,6.03747234 C305.56241,7.42886142 306.552524,8.58948907 307.866614,8.85378479 C307.625622,8.91914825 307.371841,8.95438767 307.109819,8.95438767 C306.924528,8.95438767 306.744636,8.93648377 306.569291,8.90266529 C306.935043,10.0436839 307.995636,10.8743682 309.252319,10.8973875 C308.26931,11.6678237 307.031098,12.1270731 305.68518,12.1270731 C305.453566,12.1270731 305.224793,12.113432 305,12.0867182 C306.271461,12.9020563 307.781073,13.3772202 309.402939,13.3772202 C314.686296,13.3772202 317.575077,9.00071047 317.575077,5.20508292 C317.575077,5.08060816 317.572519,4.9564176 317.567119,4.83307959 C318.128108,4.42896291 318.615208,3.9228224 319,3.34677141 L319,3.34677141 Z" id="Shape"></path>
            </g>
        </g>
    </g>

  </symbol><symbol  viewBox='0 0 24 24' id='icon-wish'>
    <path d="M5,4v18l7-3l7,3V4c0-1.1-0.9-2-2-2H7C5.9,2,5,2.9,5,4z"></path>
  </symbol></svg>